<svg xmlns="http://www.w3.org/2000/svg" viewBox="0 0 100 100" width="100" height="100">
  <defs>
    <linearGradient id="globeGrad5" x1="0%" y1="0%" x2="100%" y2="100%">
      <stop offset="0%" style="stop-color:#37474F"/>
      <stop offset="100%" style="stop-color:#263238"/>
    </linearGradient>
    <linearGradient id="rnaGrad5" x1="0%" y1="0%" x2="100%" y2="0%">
      <stop offset="0%" style="stop-color:#00E676"/>
      <stop offset="100%" style="stop-color:#00C853"/>
    </linearGradient>
  </defs>
  <!-- Globe - Dark -->
  <circle cx="50" cy="50" r="38" fill="url(#globeGrad5)"/>
  <ellipse cx="50" cy="50" rx="38" ry="15" fill="none" stroke="#546E7A" stroke-width="1.5" opacity="0.6"/>
  <ellipse cx="50" cy="50" rx="38" ry="28" fill="none" stroke="#546E7A" stroke-width="1.5" opacity="0.5"/>
  <ellipse cx="50" cy="50" rx="15" ry="38" fill="none" stroke="#546E7A" stroke-width="1.5" opacity="0.6"/>
  <!-- RNA strand - Neon green -->
  <path d="M 15 65 Q 10 50, 20 35 Q 30 20, 50 18 Q 70 16, 80 30 Q 90 45, 85 60 Q 82 70, 75 75"
        fill="none" stroke="url(#rnaGrad5)" stroke-width="4" stroke-linecap="round"/>
  <path d="M 50 18 Q 50 8, 58 12 Q 66 16, 62 22" fill="none" stroke="#00E676" stroke-width="3" stroke-linecap="round"/>
  <!-- Nucleotides - Bright colors on dark -->
  <circle cx="18" cy="58" r="3" fill="#FF5252"/>
  <circle cx="20" cy="45" r="3" fill="#FFAB40"/>
  <circle cx="28" cy="32" r="3" fill="#FF5252"/>
  <circle cx="40" cy="22" r="3" fill="#E040FB"/>
  <circle cx="60" cy="20" r="3" fill="#FFAB40"/>
  <circle cx="75" cy="28" r="3" fill="#FF5252"/>
  <circle cx="84" cy="42" r="3" fill="#E040FB"/>
  <circle cx="84" cy="55" r="3" fill="#FFAB40"/>
  <circle cx="78" cy="68" r="3" fill="#FF5252"/>
  <text x="50" y="58" font-family="Arial" font-size="20" font-weight="bold" fill="#00E676" text-anchor="middle">s</text>
</svg>
