<svg xmlns="http://www.w3.org/2000/svg" viewBox="0 0 100 100" width="100" height="100">
  <defs>
    <linearGradient id="globeGrad6" x1="0%" y1="0%" x2="100%" y2="100%">
      <stop offset="0%" style="stop-color:#2196F3"/>
      <stop offset="100%" style="stop-color:#0D47A1"/>
    </linearGradient>
  </defs>
  <!-- Globe -->
  <circle cx="50" cy="50" r="38" fill="url(#globeGrad6)" opacity="0.9"/>
  <ellipse cx="50" cy="50" rx="38" ry="15" fill="none" stroke="#fff" stroke-width="1.2" opacity="0.3"/>
  <ellipse cx="50" cy="50" rx="15" ry="38" fill="none" stroke="#fff" stroke-width="1.2" opacity="0.3"/>
  
  <!-- RNA Double Helix wrapping around -->
  <!-- Strand 1 -->
  <path d="M 10 60 Q 5 45, 15 32 Q 28 18, 50 15 Q 72 12, 85 28 Q 95 42, 90 58"
        fill="none" stroke="#4CAF50" stroke-width="3.5" stroke-linecap="round"/>
  <!-- Strand 2 (complementary) -->
  <path d="M 14 68 Q 8 52, 20 38 Q 32 22, 50 20 Q 68 18, 82 32 Q 94 48, 88 65"
        fill="none" stroke="#81C784" stroke-width="3.5" stroke-linecap="round"/>
  
  <!-- Base pairs connecting strands -->
  <line x1="12" y1="64" x2="17" y2="60" stroke="#fff" stroke-width="2" opacity="0.7"/>
  <line x1="18" y1="48" x2="23" y2="44" stroke="#fff" stroke-width="2" opacity="0.7"/>
  <line x1="28" y1="34" x2="34" y2="30" stroke="#fff" stroke-width="2" opacity="0.7"/>
  <line x1="45" y1="22" x2="48" y2="18" stroke="#fff" stroke-width="2" opacity="0.7"/>
  <line x1="65" y1="20" x2="68" y2="16" stroke="#fff" stroke-width="2" opacity="0.7"/>
  <line x1="80" y1="28" x2="84" y2="32" stroke="#fff" stroke-width="2" opacity="0.7"/>
  <line x1="88" y1="45" x2="92" y2="50" stroke="#fff" stroke-width="2" opacity="0.7"/>
  
  <!-- Hairpin loop at top -->
  <path d="M 50 15 Q 50 5, 58 8 Q 65 12, 60 18" fill="none" stroke="#4CAF50" stroke-width="3" stroke-linecap="round"/>
  
  <!-- Center text -->
  <text x="50" y="58" font-family="Arial" font-size="18" font-weight="bold" fill="#fff" text-anchor="middle" opacity="0.95">s</text>
</svg>
